<svg xmlns="http://www.w3.org/2000/svg" width="590" height="280" viewBox="0 0 590 280" font-family="Inter, -apple-system, BlinkMacSystemFont, 'Segoe UI', Helvetica, Arial, sans-serif"><style></style><rect x="0.5" y="0.5" width="589" height="279" rx="12" fill="#1e2328" stroke="#39414a"/><defs><clipPath id="cchat"><path d="M1 13a12 12 0 0 1 12-12H577a12 12 0 0 1 12 12V112H1z"/></clipPath><linearGradient id="gchat" x1="0" y1="0" x2="1" y2="1"><stop offset="0" stop-color="#2b3540"/><stop offset="1" stop-color="#607081"/></linearGradient></defs><g clip-path="url(#cchat)"><rect width="590" height="112" fill="url(#gchat)"/><circle cx="459" cy="63" r="10" fill="none" stroke="#fff" stroke-opacity="0.200"/><circle cx="459" cy="63" r="26" fill="none" stroke="#fff" stroke-opacity="0.193"/><circle cx="459" cy="63" r="42" fill="none" stroke="#fff" stroke-opacity="0.186"/><circle cx="459" cy="63" r="58" fill="none" stroke="#fff" stroke-opacity="0.179"/><circle cx="459" cy="63" r="74" fill="none" stroke="#fff" stroke-opacity="0.172"/><circle cx="459" cy="63" r="90" fill="none" stroke="#fff" stroke-opacity="0.165"/><circle cx="459" cy="63" r="106" fill="none" stroke="#fff" stroke-opacity="0.158"/><circle cx="459" cy="63" r="122" fill="none" stroke="#fff" stroke-opacity="0.151"/><circle cx="459" cy="63" r="138" fill="none" stroke="#fff" stroke-opacity="0.144"/><circle cx="459" cy="63" r="154" fill="none" stroke="#fff" stroke-opacity="0.137"/><circle cx="459" cy="63" r="170" fill="none" stroke="#fff" stroke-opacity="0.130"/><circle cx="459" cy="63" r="186" fill="none" stroke="#fff" stroke-opacity="0.123"/><circle cx="459" cy="63" r="202" fill="none" stroke="#fff" stroke-opacity="0.116"/><circle cx="459" cy="63" r="218" fill="none" stroke="#fff" stroke-opacity="0.109"/><circle cx="459" cy="63" r="234" fill="none" stroke="#fff" stroke-opacity="0.102"/><circle cx="459" cy="63" r="250" fill="none" stroke="#fff" stroke-opacity="0.095"/><circle cx="459" cy="63" r="266" fill="none" stroke="#fff" stroke-opacity="0.088"/><circle cx="459" cy="63" r="282" fill="none" stroke="#fff" stroke-opacity="0.081"/><circle cx="459" cy="63" r="298" fill="none" stroke="#fff" stroke-opacity="0.074"/><circle cx="459" cy="63" r="314" fill="none" stroke="#fff" stroke-opacity="0.067"/><circle cx="459" cy="63" r="330" fill="none" stroke="#fff" stroke-opacity="0.060"/><circle cx="459" cy="63" r="346" fill="none" stroke="#fff" stroke-opacity="0.053"/><circle cx="459" cy="63" r="362" fill="none" stroke="#fff" stroke-opacity="0.046"/><circle cx="459" cy="63" r="378" fill="none" stroke="#fff" stroke-opacity="0.039"/></g><line x1="1" y1="112" x2="589" y2="112" stroke="#39414a"/><text x="24" y="150" font-size="20" font-weight="600" fill="#e9edf1" text-anchor="start" letter-spacing="-0.3" >Secure Chat App</text><text x="566" y="150" font-size="12" font-weight="500" fill="#8793a0" text-anchor="end" letter-spacing="0" >03</text><rect x="24" y="164" width="51" height="22" rx="4" fill="#252b31" stroke="#39414a"/><text x="50" y="179" font-size="11" font-weight="500" fill="#aab3bd" text-anchor="middle" letter-spacing="0" >React</text><rect x="81" y="164" width="84" height="22" rx="4" fill="#252b31" stroke="#39414a"/><text x="123" y="179" font-size="11" font-weight="500" fill="#aab3bd" text-anchor="middle" letter-spacing="0" >TypeScript</text><rect x="171" y="164" width="64" height="22" rx="4" fill="#252b31" stroke="#39414a"/><text x="203" y="179" font-size="11" font-weight="500" fill="#aab3bd" text-anchor="middle" letter-spacing="0" >Node.js</text><text x="24" y="216" font-size="13.5" font-weight="400" fill="#aab3bd" text-anchor="start" letter-spacing="0" >A secure real-time chat application with a React and TypeScript</text><text x="24" y="236" font-size="13.5" font-weight="400" fill="#aab3bd" text-anchor="start" letter-spacing="0" >frontend and a Node.js backend.</text><text x="566" y="262" font-size="13" font-weight="600" fill="#e9edf1" text-anchor="end" letter-spacing="0" >View project →</text></svg>